<svg xmlns="http://www.w3.org/2000/svg" viewBox="0 0 386.48 160.25"><defs><style>.cls-1{fill:#fff;}.cls-2{fill:#a6ce39;}</style></defs><title>logo_solid_white</title><g id="Camada_2" data-name="Camada 2"><g id="Camada_1-2" data-name="Camada 1"><path class="cls-1" d="M302.72,24.68H329a37.54,37.54,0,0,1,0,75.08l-26.29-.1ZM329,19.29H300.08a2.7,2.7,0,0,0-2.75,2.56h0v.06h0v80.59a2.69,2.69,0,0,0,2.62,2.63H329a42.94,42.94,0,0,0,0-85.87Z"/><path class="cls-2" d="M267.26,105.16a2.6,2.6,0,0,0,2.64-2.64V21.92a2.69,2.69,0,0,0-2.64-2.75,2.79,2.79,0,0,0-2.76,2.75v80.6a2.7,2.7,0,0,0,2.76,2.64"/><path class="cls-1" d="M248,105.16a2.7,2.7,0,1,0,0-5.4H223.52a37.13,37.13,0,0,1-37.08-37.08l-.12-40.75a2.69,2.69,0,0,0-2.75-2.64,2.59,2.59,0,0,0-2.64,2.64L181,62.68a42.53,42.53,0,0,0,42.48,42.48Z"/><path class="cls-1" d="M124.21,105.16A42.94,42.94,0,1,0,81.28,62.22a43,43,0,0,0,42.93,42.94m0-80.48A37.54,37.54,0,1,1,86.68,62.22,37.63,37.63,0,0,1,124.21,24.68Z"/><path class="cls-1" d="M23,65H44.54C54,65.55,62,72.78,62,82.43A17.66,17.66,0,0,1,44.54,99.88H2.76a2.7,2.7,0,1,0,0,5.39H44.54A22.83,22.83,0,0,0,67.39,82.43a22.53,22.53,0,0,0-6.54-16,22.79,22.79,0,0,0-16.31-6.89H23C13.55,59,5.51,51.77,5.51,42.13A17.67,17.67,0,0,1,23,24.68H64.75a2.7,2.7,0,1,0,0-5.39H23A22.82,22.82,0,0,0,.12,42.13a22.49,22.49,0,0,0,6.54,16A22.78,22.78,0,0,0,23,65"/><path class="cls-2" d="M276.65,105.16a2.6,2.6,0,0,0,2.64-2.64V2.76A2.7,2.7,0,0,0,276.65,0a2.8,2.8,0,0,0-2.76,2.76v99.76a2.7,2.7,0,0,0,2.76,2.64"/><path class="cls-1" d="M378.91,34.82h1.26a2.05,2.05,0,0,0,1.24-.26.88.88,0,0,0,.33-.71.91.91,0,0,0-.16-.51.88.88,0,0,0-.44-.34,3.45,3.45,0,0,0-1.05-.11h-1.18Zm-1,3.63V32h2.22a5.39,5.39,0,0,1,1.64.18,1.62,1.62,0,0,1,.81.62,1.7,1.7,0,0,1-.2,2.17,2,2,0,0,1-1.35.59,1.79,1.79,0,0,1,.55.34,6.88,6.88,0,0,1,.95,1.28l.79,1.26H382l-.58-1a5.22,5.22,0,0,0-1.09-1.5,1.31,1.31,0,0,0-.83-.21h-.61v2.73Zm2.63-8.3a5.13,5.13,0,0,0-2.46.64,4.69,4.69,0,0,0-1.87,1.85,5,5,0,0,0,0,5A4.7,4.7,0,0,0,378,39.47a5.11,5.11,0,0,0,2.49.67,5,5,0,0,0,2.48-.67,4.64,4.64,0,0,0,1.85-1.85,5,5,0,0,0,.66-2.48,5.15,5.15,0,0,0-.67-2.5A4.63,4.63,0,0,0,383,30.79,5.12,5.12,0,0,0,380.5,30.15Zm0-1a6.08,6.08,0,0,1,2.94.78,5.42,5.42,0,0,1,2.24,2.21,6.13,6.13,0,0,1,.8,3,6,6,0,0,1-.79,3,5.55,5.55,0,0,1-2.21,2.22,6,6,0,0,1-6,0,5.64,5.64,0,0,1-2.22-2.22,6,6,0,0,1-.79-3,6.13,6.13,0,0,1,.8-3,5.54,5.54,0,0,1,2.24-2.21A6.11,6.11,0,0,1,380.5,29.15Z"/><path class="cls-1" d="M370.54,154.35v-19h1.92v19Zm-18.14-6.09a4.65,4.65,0,0,0-2.22.73,2.13,2.13,0,0,0-.72,1.83,2,2,0,0,0,.69,1.57,2.65,2.65,0,0,0,1.81.6,3.34,3.34,0,0,0,2.57-1.1,3.93,3.93,0,0,0,1-2.76v-1.29Zm-3.7-5.83a7.86,7.86,0,0,1,4.32-1.2c3,0,4.47,1.57,4.47,4.73v8.39h-1.94v-2h-.07a4.68,4.68,0,0,1-6.93,1.31,3.48,3.48,0,0,1-1.11-2.7q0-3.57,4.23-4.16l3.87-.56c0-2.23-.89-3.35-2.66-3.35a6.2,6.2,0,0,0-4.18,1.6Zm-15.57,11.92V141.52h1.93v12.83Zm-.27-17.45a1.28,1.28,0,0,1,.36-.92,1.29,1.29,0,0,1,2.19.92,1.24,1.24,0,0,1-.37.92,1.28,1.28,0,0,1-.92.36,1.23,1.23,0,0,1-1.26-1.28Zm-11.11,6.6a2.6,2.6,0,0,0-1.55-.41,2.63,2.63,0,0,0-2.21,1.28,5.83,5.83,0,0,0-.9,3.41v6.57h-1.94V141.52h1.94v2.66h.05a4.48,4.48,0,0,1,1.34-2.12,3,3,0,0,1,2-.77,3.58,3.58,0,0,1,1.26.18ZM297,148.26a4.65,4.65,0,0,0-2.22.73,2.1,2.1,0,0,0-.72,1.83,2,2,0,0,0,.68,1.57,2.7,2.7,0,0,0,1.82.6,3.3,3.3,0,0,0,2.56-1.1,3.89,3.89,0,0,0,1-2.76v-1.29Zm-3.7-5.83a7.84,7.84,0,0,1,4.32-1.2c3,0,4.47,1.57,4.47,4.73v8.39h-1.94v-2h-.08a4.67,4.67,0,0,1-6.92,1.31,3.48,3.48,0,0,1-1.11-2.7q0-3.57,4.22-4.16l3.88-.56c0-2.23-.89-3.35-2.66-3.35a6.2,6.2,0,0,0-4.18,1.6Zm-21.07,9.3A6.09,6.09,0,0,0,276,153c1.82,0,2.73-.62,2.73-1.85a1.63,1.63,0,0,0-.59-1.3,8.2,8.2,0,0,0-2.36-1.18A7.33,7.33,0,0,1,273,147a3.29,3.29,0,0,1,.7-4.76,5.78,5.78,0,0,1,3.46-1,7.35,7.35,0,0,1,2.95.56v2a5.84,5.84,0,0,0-3.26-.93,3,3,0,0,0-1.88.53,1.63,1.63,0,0,0-.68,1.33,1.65,1.65,0,0,0,.5,1.3,8.32,8.32,0,0,0,2.21,1.13,7.57,7.57,0,0,1,3,1.74,3.34,3.34,0,0,1-.71,4.75,6.15,6.15,0,0,1-3.61,1,7,7,0,0,1-3.41-.78Zm-13.47-5a4.2,4.2,0,0,0-.86-2.8,3,3,0,0,0-2.4-1,3.44,3.44,0,0,0-2.5,1,4.81,4.81,0,0,0-1.31,2.78Zm2,1.71h-9.1a4.92,4.92,0,0,0,1.2,3.4,4,4,0,0,0,3,1.18,6.24,6.24,0,0,0,4-1.45v1.85a7.38,7.38,0,0,1-4.46,1.26,5.28,5.28,0,0,1-4.24-1.78,7.22,7.22,0,0,1-1.54-4.91,7.08,7.08,0,0,1,1.69-4.83,5.37,5.37,0,0,1,4.18-1.9,4.76,4.76,0,0,1,3.86,1.62,6.82,6.82,0,0,1,1.37,4.51Zm-21.24-4.91a2.73,2.73,0,0,0-3.76.87,5.83,5.83,0,0,0-.9,3.41v6.57H233V141.52h1.94v2.66h.05a4.48,4.48,0,0,1,1.34-2.12,3,3,0,0,1,2-.77,3.58,3.58,0,0,1,1.26.18Zm-28.8,5.65a3.82,3.82,0,0,0,1.07,2.73,3.74,3.74,0,0,0,5.64-.33,6.68,6.68,0,0,0,1.08-4.05,5.23,5.23,0,0,0-1-3.39,3.32,3.32,0,0,0-2.72-1.25,3.75,3.75,0,0,0-2.91,1.26,4.52,4.52,0,0,0-1.14,3.17Zm0,3.32v7.78h-1.94V141.52h1.94v2.27h0a4.9,4.9,0,0,1,4.45-2.56,4.71,4.71,0,0,1,3.86,1.71,7,7,0,0,1,1.42,4.62,7.85,7.85,0,0,1-1.6,5.17,5.25,5.25,0,0,1-4.27,1.92,4.32,4.32,0,0,1-3.86-2.18Zm-15,1.88h-1.94V147a5.57,5.57,0,0,0-.68-3.19,2.56,2.56,0,0,0-2.23-.93,2.78,2.78,0,0,0-2.27,1.24,4.67,4.67,0,0,0-.95,2.92v7.33h-1.93v-7.63q0-3.85-3-3.86a2.76,2.76,0,0,0-2.26,1.16,4.72,4.72,0,0,0-.9,3v7.33h-1.95V141.52h1.95v2h0a4.32,4.32,0,0,1,4-2.32,3.71,3.71,0,0,1,2.24.71,3.75,3.75,0,0,1,1.39,2,4.56,4.56,0,0,1,4.26-2.67q4.23,0,4.23,5.21Zm-30.42,0h-9.43v-18h9v1.82h-7.07v6.11h6.53v1.8h-6.53v6.44h7.47ZM112.2,148a5.34,5.34,0,0,0,1.19,3.63,4,4,0,0,0,3.17,1.37,3.84,3.84,0,0,0,3.14-1.32,5.66,5.66,0,0,0,1.1-3.73,5.82,5.82,0,0,0-1.1-3.77,3.83,3.83,0,0,0-3.14-1.33,4,4,0,0,0-3.17,1.38A5.6,5.6,0,0,0,112.2,148Zm-2,.09a7.06,7.06,0,0,1,1.73-5,6.24,6.24,0,0,1,4.76-1.83,5.71,5.71,0,0,1,4.43,1.76,7,7,0,0,1,1.62,4.91,6.87,6.87,0,0,1-1.75,4.9,6.06,6.06,0,0,1-4.6,1.85,5.91,5.91,0,0,1-4.5-1.8A6.67,6.67,0,0,1,110.24,148.1Zm-12.86-12a3.39,3.39,0,0,1-.62,2.13,1.92,1.92,0,0,1-1.58.8,4.11,4.11,0,0,1-2-.66,3.12,3.12,0,0,0-1.49-.52q-1.11,0-1.11,1.41H89.43a3.42,3.42,0,0,1,.6-2.12,2,2,0,0,1,1.65-.79,3.77,3.77,0,0,1,1.86.65,3.15,3.15,0,0,0,1.6.55c.7,0,1-.48,1-1.45ZM93,148.26a4.65,4.65,0,0,0-2.22.73,2.1,2.1,0,0,0-.72,1.83,2,2,0,0,0,.68,1.57,2.7,2.7,0,0,0,1.82.6,3.34,3.34,0,0,0,2.57-1.1,3.93,3.93,0,0,0,1-2.76v-1.29Zm-3.7-5.83a7.86,7.86,0,0,1,4.32-1.2c3,0,4.47,1.57,4.47,4.73v8.39H96.13v-2h-.07a4.68,4.68,0,0,1-6.93,1.31A3.48,3.48,0,0,1,88,151q0-3.57,4.23-4.16l3.87-.56q0-3.34-2.66-3.35a6.2,6.2,0,0,0-4.18,1.6ZM77.07,154.22a3.84,3.84,0,0,1-1.87.41c-2.2,0-3.31-1.24-3.31-3.73v-7.71H69.67v-1.67h2.22v-3.15l1.93-.63v3.78h3.25v1.67H73.82v7.36a3,3,0,0,0,.45,1.89,1.83,1.83,0,0,0,1.47.54,2.12,2.12,0,0,0,1.33-.43Zm-26.6-2.49a6.09,6.09,0,0,0,3.7,1.25c1.82,0,2.73-.62,2.73-1.85a1.63,1.63,0,0,0-.59-1.3A8.2,8.2,0,0,0,54,148.65,7.24,7.24,0,0,1,51.21,147a3.11,3.11,0,0,1-.72-2.1,3.16,3.16,0,0,1,1.42-2.66,5.77,5.77,0,0,1,3.45-1,7.37,7.37,0,0,1,3,.56v2a5.84,5.84,0,0,0-3.26-.93,3,3,0,0,0-1.88.53A1.77,1.77,0,0,0,53,146a8.32,8.32,0,0,0,2.21,1.13,7.57,7.57,0,0,1,3,1.74,3.34,3.34,0,0,1-.71,4.75,6.18,6.18,0,0,1-3.61,1,7,7,0,0,1-3.41-.78ZM37,146.7a4.2,4.2,0,0,0-.86-2.8,3,3,0,0,0-2.4-1,3.44,3.44,0,0,0-2.5,1,4.81,4.81,0,0,0-1.31,2.78Zm2,1.71H29.9a4.91,4.91,0,0,0,1.19,3.4,4,4,0,0,0,3,1.18,6.2,6.2,0,0,0,4-1.45v1.85a7.33,7.33,0,0,1-4.45,1.26,5.28,5.28,0,0,1-4.24-1.78A7.22,7.22,0,0,1,27.9,148a7.08,7.08,0,0,1,1.69-4.83,5.33,5.33,0,0,1,4.17-1.9,4.78,4.78,0,0,1,3.87,1.62A6.82,6.82,0,0,1,39,147.36Zm-23.29,4.7a11.76,11.76,0,0,1-6,1.54,8.14,8.14,0,0,1-6.15-2.48,9.07,9.07,0,0,1-2.38-6.56,9.35,9.35,0,0,1,2.63-6.85,8.94,8.94,0,0,1,6.65-2.68,10.71,10.71,0,0,1,4.9,1v2.23a9.39,9.39,0,0,0-5.15-1.38,6.52,6.52,0,0,0-5,2.1,7.66,7.66,0,0,0-2,5.45,7.74,7.74,0,0,0,1.81,5.43,6.38,6.38,0,0,0,4.93,2,7.34,7.34,0,0,0,3.72-.87v-5.14h-4V145h5.93Z"/></g></g></svg>