<?xml version="1.0" encoding="iso-8859-1"?>
<!-- Generator: Adobe Illustrator 19.0.0, SVG Export Plug-In . SVG Version: 6.00 Build 0)  -->
<svg xmlns="http://www.w3.org/2000/svg" xmlns:xlink="http://www.w3.org/1999/xlink" version="1.1" id="Capa_1" x="0px" y="0px" viewBox="0 0 398.4 398.4" style="enable-background:new 0 0 398.4 398.4;" xml:space="preserve" width="512px" height="512px">
<g>
	<g>
		<path d="M203.5,143H40l100.7,110c1.6,1.8,2.5,4.2,2.5,6.7v138.7l60-50.9v-87.8c0-2.5,0.9-5,2.6-6.8l62.5-68.2    C242.1,179.8,218.9,164.8,203.5,143z" fill="#1b4e85"/>
	</g>
</g>
<g>
	<g>
		<path d="M287.9,0c-41.4,0-76.5,30.4-82.4,71.4v0.1c-0.6,3.9-0.9,7.8-0.9,11.8c-0.1,45.6,36.5,82.8,82.1,83.4    c0.3,0,0.6-0.7,0.9,0.3h0.2c46,0,83.4-37.6,83.4-83.5S333.8,0,287.9,0z M297.3,136v6.9c0,5.5-4.5,10-10,10s-10-4.5-10-10v-7.2    c-13.1-4.5-21.9-16.8-21.8-30.7c0-5.5,4.5-10,10-10s10,4.5,10,10c0.1,6.9,5.6,12.4,12.5,12.4c6.9-0.1,12.4-5.6,12.4-12.5    c-0.1-6.9-5.6-12.4-12.5-12.4c-18,0-32.5-14.5-32.5-32.4c-0.1-13.9,8.7-26.3,21.8-30.7v-5.7c0-5.5,4.5-10,10-10s10,4.5,10,10V29    c13.6,4.3,22.9,16.8,23,31.1c0,0.1,0,0.1,0,0.2c-0.1,5.5-4.6,10-10.1,9.9c-5.5-0.1-10-4.6-9.9-10.1c0-6.9-5.5-12.5-12.4-12.5    c-6.8,0-12.2,5.6-12.3,12.5c-0.1,6.9,5.5,12.5,12.4,12.5c17.9,0,32.4,14.5,32.4,32.4C320.2,119.2,310.9,131.7,297.3,136z" fill="#1b4e85"/>
	</g>
</g>
<g>
	<g>
		<path d="M184.6,83.3c0-1.4,0-3.3,0.1-4.3H27.2v44h165.3C187.3,110.4,184.6,96.9,184.6,83.3z" fill="#1b4e85"/>
	</g>
</g>
<g>
</g>
<g>
</g>
<g>
</g>
<g>
</g>
<g>
</g>
<g>
</g>
<g>
</g>
<g>
</g>
<g>
</g>
<g>
</g>
<g>
</g>
<g>
</g>
<g>
</g>
<g>
</g>
<g>
</g>
</svg>
